<svg width="64" height="64" viewBox="0 0 64 64" fill="none" xmlns="http://www.w3.org/2000/svg">
<rect width="64" height="64" rx="32" fill="#EAEAFD"/>
<path d="M23 30.5V36.5M41 27.5V33.5M39.5 20C43.1731 20 45.1597 20.5621 46.1482 20.9982C46.2798 21.0562 46.3456 21.0853 46.5356 21.2666C46.6495 21.3752 46.8573 21.6941 46.9108 21.8421C47 22.0891 47 22.2241 47 22.4941V38.6167C47 39.9799 47 40.6614 46.7956 41.0118C46.5876 41.3681 46.3871 41.5338 45.9979 41.6708C45.6153 41.8054 44.8429 41.657 43.2983 41.3602C42.2171 41.1525 40.9348 41 39.5 41C35 41 30.5 44 24.5 44C20.8269 44 18.8403 43.4379 17.8518 43.0018C17.7202 42.9438 17.6544 42.9147 17.4644 42.7334C17.3505 42.6248 17.1427 42.3059 17.0892 42.1579C17 41.9109 17 41.7759 17 41.5059L17 25.3833C17 24.0201 17 23.3386 17.2044 22.9882C17.4124 22.6318 17.6129 22.4662 18.0021 22.3292C18.3847 22.1946 19.1571 22.343 20.7017 22.6398C21.7829 22.8475 23.0652 23 24.5 23C29 23 33.5 20 39.5 20ZM35.75 32C35.75 34.0711 34.0711 35.75 32 35.75C29.9289 35.75 28.25 34.0711 28.25 32C28.25 29.9289 29.9289 28.25 32 28.25C34.0711 28.25 35.75 29.9289 35.75 32Z" stroke="#6565EC" stroke-width="2" stroke-linecap="round" stroke-linejoin="round"/>
</svg>
